<?xml version="1.0" encoding="UTF-8" standalone="no"?>
<!-- Created with Inkscape (http://www.inkscape.org/) -->

<svg
   width="210mm"
   height="297mm"
   viewBox="0 0 210 297"
   version="1.1"
   id="svg1"
   xml:space="preserve"
   inkscape:version="1.4.2 (f4327f4, 2025-05-13)"
   sodipodi:docname="monogram_korinsky.svg"
   xmlns:inkscape="http://www.inkscape.org/namespaces/inkscape"
   xmlns:sodipodi="http://sodipodi.sourceforge.net/DTD/sodipodi-0.dtd"
   xmlns="http://www.w3.org/2000/svg"
   xmlns:svg="http://www.w3.org/2000/svg"><sodipodi:namedview
     id="namedview1"
     pagecolor="#ffffff"
     bordercolor="#000000"
     borderopacity="0.25"
     inkscape:showpageshadow="2"
     inkscape:pageopacity="0.0"
     inkscape:pagecheckerboard="0"
     inkscape:deskcolor="#d1d1d1"
     inkscape:document-units="mm"
     inkscape:zoom="1.0167041"
     inkscape:cx="483.91662"
     inkscape:cy="281.79291"
     inkscape:window-width="1920"
     inkscape:window-height="1009"
     inkscape:window-x="-8"
     inkscape:window-y="-8"
     inkscape:window-maximized="1"
     inkscape:current-layer="layer1" /><defs
     id="defs1" /><g
     inkscape:label="Vrstva 1"
     inkscape:groupmode="layer"
     id="layer1"><path
       style="fill:currentColor"
       d="m 17.485247,148.18083 -0.661458,0.11382 -1.719792,-0.16674 -1.719791,-0.16675 -0.900546,-0.46129 -0.900546,-0.46129 H 11.094597 10.606081 V 146.774 146.50942 H 10.041108 9.4761364 l -0.616081,-0.66477 -0.616081,-0.66476 0.165774,-0.45971 0.165775,-0.45972 0.504129,-0.72761 0.504129,-0.7276 h -0.200878 -0.200878 l 0.458461,-0.33524 0.4584616,-0.33523 0.321425,-0.64471 0.321425,-0.64472 1.169507,-0.28475 1.169507,-0.28475 0.1076,-0.3228 0.107599,-0.3228 h 0.507118 0.507118 l 0.0068,-0.33073 0.0068,-0.33073 1.005897,-0.46302 1.005897,-0.46302 h 0.310194 0.310194 v -0.26458 -0.26459 h 0.544781 0.544782 l -0.147229,-0.23822 -0.14723,-0.23822 1.038247,-0.54116 1.038246,-0.54117 0.482431,-0.2632 0.48243,-0.26319 1.282663,-0.45846 1.282663,-0.45846 0.134707,-0.35104 0.134707,-0.35104 h 0.736549 0.736549 l 1.153373,-0.52336 1.153373,-0.52335 0.711989,-0.006 0.711989,-0.006 0.150941,-0.24422 0.15094,-0.24423 0.808539,-0.17758 0.808538,-0.17759 0.709782,-0.37031 0.709782,-0.37031 0.447405,-0.002 0.447406,-0.002 0.163522,-0.26458 0.163521,-0.26458 h 0.5899 0.589899 l 1.03793,-0.52917 1.03793,-0.52917 0.407076,-0.009 0.407077,-0.009 1.455209,-0.51189 1.455208,-0.51189 0.926042,-0.0122 0.926041,-0.0123 0.595313,-0.15954 0.595312,-0.15954 v -0.2707 -0.2707 l 0.391933,-0.29376 0.391933,-0.29375 0.09532,-0.64748 0.09532,-0.64749 0.306496,-0.10217 0.306495,-0.10216 v -0.31778 -0.31778 l 0.798417,-0.47164 0.798416,-0.47163 -0.128661,-0.20818 -0.128662,-0.20818 0.672761,-0.30653 0.672761,-0.30653 -0.08393,-0.80017 -0.08393,-0.80017 0.62996,-0.32105 0.62996,-0.32106 -0.06017,-0.24079 -0.06017,-0.2408 0.452326,-0.25314 0.452325,-0.25313 -0.362473,-0.23201 -0.362473,-0.23202 0.862432,-0.68427 0.862432,-0.68428 -0.125804,-0.20356 -0.125803,-0.20355 0.646711,-0.56231 0.646711,-0.56231 -0.141533,-0.36883 -0.141533,-0.36883 0.542553,-0.14188 0.542553,-0.14188 -0.161201,-0.806 -0.1612,-0.806 0.883202,-0.80668 0.883202,-0.80668 h -0.323549 -0.323548 v -0.39464 -0.39463 l 0.529166,-0.33047 0.529167,-0.33047 v -0.28711 -0.28711 l 0.661458,-0.62141 0.661459,-0.6214 v -0.64011 -0.64011 l 0.500434,-0.13087 0.500433,-0.13086 -0.05177,-1.01391 -0.05177,-1.01391 0.512876,-0.35181 0.512875,-0.35181 0.505222,-0.52531 0.505222,-0.52532 -0.281513,-0.0938 -0.281513,-0.0938 0.676223,-0.53192 0.676222,-0.53192 -0.159512,-0.50257 -0.159511,-0.50258 h 0.414704 0.414705 l 0.01966,-0.19844 0.01966,-0.19843 0.114074,-0.61566 0.114075,-0.615656 0.395431,-0.39543 0.39543,-0.39543 0.0403,-0.31183 0.0403,-0.31183 0.03038,-0.27941 0.03038,-0.27941 0.894157,-0.79893 0.894157,-0.79893 0.07819,-0.73339 0.07819,-0.73338 0.452597,-0.33095 0.452597,-0.33095 -0.188329,-0.30472 -0.188328,-0.30472 h 0.280198 0.280199 v -0.66146 -0.66145 h -1.587501 -1.5875 v 0.26458 0.26458 h -0.645843 -0.645843 l -0.163522,-0.26458 -0.163521,-0.26458 h -1.417545 -1.417545 l -0.106688,0.32006 -0.106688,0.32006 -1.283919,-0.2938 -1.283919,-0.2938 -0.467197,0.29177 -0.467197,0.29177 -0.61164,-0.30302 -0.611641,-0.30301 -1.058333,-0.11259 -1.058334,-0.11259 -1.322916,-0.37609 -1.322917,-0.37609 -1.329702,-1.31227 -1.329701,-1.31228 -0.407511,-0.58461 -0.407511,-0.58462 0.08077,-2.06122 0.08077,-2.06121 0.06894,-0.5181 0.06894,-0.51811 0.859896,-0.76607 0.859896,-0.76608 0.0056,-0.30332 0.0056,-0.30332 1.052684,-0.74476 1.052684,-0.74477 v -0.24565 -0.24743 h 0.394633 0.394633 l 0.33047,-0.52916 0.33047,-0.52917 h 0.281107 0.281107 l 1.065251,-0.78339 1.065251,-0.7834 1.103539,-0.17646 1.103539,-0.17646 v -0.20764 -0.20764 l 1.79155,-0.68459 1.79155,-0.68459 h 0.494386 0.494386 l 0.351483,0.46303 0.351483,0.46302 0.0084,0.16633 0.0084,0.16634 -0.727604,0.27518 -0.727604,0.27518 -0.7911,0.17477 -0.7911,0.17478 -0.134942,0.1777 -0.134942,0.17771 -1.219605,0.59506 -1.219605,0.59507 H 53.03517 52.792223 l -0.453087,0.52917 -0.453087,0.52916 h -0.54006 -0.54006 l -0.14843,0.38681 -0.148431,0.3868 -0.513735,0.16305 -0.513736,0.16306 -1.247759,1.33116 -1.24776,1.33116 -0.485493,0.47469 -0.485493,0.47469 0.07661,0.88925 0.07661,0.88924 -0.178084,0.28815 -0.178085,0.28815 0.314242,0.83252 0.314242,0.83252 h 0.177894 0.177894 l 0.158506,0.59532 0.158505,0.59531 1.126948,0.50249 1.126948,0.50249 0.396875,0.3098 0.396875,0.30981 2.38125,0.43194 2.38125,0.43194 3.626837,-0.14097 3.626836,-0.14097 2.326289,-0.17723 2.326289,-0.17722 v -0.28349 -0.28348 l 0.439467,-0.43946 0.439468,-0.43947 -0.130069,-0.49738 -0.130069,-0.49739 0.540575,-0.14136 0.540576,-0.14136 -0.107178,-0.55654 -0.107179,-0.55653 h 0.265007 0.265006 l -0.127152,-0.20573 -0.127153,-0.20574 1.062953,-1.05103 1.062952,-1.05104 0.385854,-0.95625 0.385854,-0.95626 0.58096,-0.27441 0.580961,-0.27442 0.854538,-0.72149 0.854538,-0.7215 -0.130776,-0.2116 -0.130776,-0.21159 0.533009,-0.16917 0.533009,-0.16918 v -0.24675 -0.24675 h 0.359865 0.359865 l 0.981891,-0.92604 0.98189,-0.92605 h 0.614849 0.614848 l 0.623084,-0.65688 0.623083,-0.65689 0.976572,-0.005 0.976573,-0.005 0.163521,-0.26458 0.163522,-0.26459 h 1.949861 1.949861 l 0.396875,0.39688 0.396875,0.39687 h 0.148166 0.148167 l 0.54983,0.46303 0.549831,0.46302 0.927848,1.83923 0.927849,1.83924 -0.155368,0.82819 -0.155368,0.82818 -0.603155,0.52444 -0.603156,0.52443 -0.468318,0.17971 -0.468318,0.17971 0.163166,0.26401 0.163165,0.26401 -0.940145,0.44832 -0.940146,0.44832 v 0.19456 0.19456 l -0.79375,0.17433 -0.79375,0.17434 v 0.37585 0.37586 h -0.513552 -0.513551 l -0.151019,0.24435 -0.151019,0.24435 -1.38595,0.4511 -1.385951,0.4511 -0.444084,0.38675 -0.444084,0.38675 -1.095251,0.24609 -1.095251,0.24609 -0.709623,0.5224 -0.709623,0.5224 -1.661856,0.17224 -1.661856,0.17223 -0.139697,0.22603 -0.139696,0.22604 h -0.661459 -0.661458 l 0.155259,0.25121 0.15526,0.25121 -0.981229,0.18408 -0.981229,0.18408 -0.415187,0.0453 -0.415186,0.0453 -0.739127,0.21244 -0.739128,0.21243 0.09893,0.29679 0.09893,0.2968 -0.333092,0.33309 -0.333091,0.33309 H 66.68557 66.371229 l 0.13838,0.52916 0.13838,0.52917 H 66.45718 66.266371 l -0.441598,0.92604 -0.441599,0.92604 h -0.284478 -0.284479 l 0.1722,0.27863 0.172199,0.27863 -0.595878,0.5168 -0.595879,0.5168 0.164158,0.16416 0.164158,0.16416 -0.393117,0.7602 -0.393117,0.76021 h -0.215319 -0.21532 l -0.310414,0.681276 -0.310414,0.68129 0.151268,0.24475 0.151268,0.24476 h -0.271895 -0.271894 l 0.144216,0.37582 0.144217,0.37582 -0.615541,0.0872 -0.615542,0.0872 -0.0825,0.71497 -0.0825,0.71496 -0.516654,0.16398 -0.516654,0.16398 0.164816,0.26668 0.164817,0.26668 -0.52719,0.36926 -0.52719,0.36926 -0.169953,0.90592 -0.169953,0.90593 -0.389873,0.32357 -0.389874,0.32356 v 0.49677 0.49677 H 57.96628 57.701696 v 0.38188 0.38187 l -0.588038,0.41188 -0.588038,0.41187 h 0.206122 0.206121 l -0.449613,0.8599 -0.449613,0.85989 -0.226804,0.45944 -0.226803,0.45943 v 0.40046 0.40047 h -0.257789 -0.257789 l -0.410464,0.79375 -0.410464,0.79375 0.337524,-0.006 0.337523,-0.006 0.935362,-0.21759 0.935362,-0.21759 1.229139,-1.16516 1.229139,-1.16516 0.349041,-0.27206 0.349041,-0.27207 1.256771,-0.73127 1.25677,-0.73128 v -0.22036 -0.22035 l 0.761859,-0.15238 0.761858,-0.15237 0.409868,-0.40987 0.409868,-0.40986 h 0.362958 0.362959 l 1.484279,-1.32292 1.484279,-1.32292 h 0.428924 0.428923 l 0.146091,-0.3807 0.146091,-0.38071 0.771647,-0.16948 0.771647,-0.16948 v -0.22574 -0.22573 l 0.528736,-0.16781 0.528735,-0.16782 1.12491,-1.13777 1.12491,-1.13777 0.775975,-0.18463 0.775974,-0.18463 0.765772,-0.64436 0.765772,-0.64435 0.641066,-0.1609 0.641066,-0.1609 v -0.339506 -0.33951 l 0.669303,-0.16798 0.669303,-0.16799 0.569036,-0.65444 0.569036,-0.65445 h 0.75434 0.75434 l 0.14843,-0.38681 0.148431,-0.3868 0.49119,-0.1559 0.49119,-0.15589 0.163655,-0.51564 0.163656,-0.51563 h 0.483029 0.48303 l 0.152295,-0.39687 0.152295,-0.39688 -0.322425,-0.0179 -0.322425,-0.0179 0.661458,-0.30812 0.661458,-0.30811 0.364845,-0.35066 0.364844,-0.35065 0.349215,0.13401 0.349216,0.13401 0.178204,-0.56148 0.178204,-0.56147 0.436443,-0.46846 0.436443,-0.46847 1.184835,-0.27301 1.184835,-0.27301 0.363126,-0.006 0.363126,-0.006 -0.300966,0.36264 -0.300966,0.36264 0.499894,0.61734 0.499894,0.61734 -1.147629,0.72781 -1.147628,0.7278 -0.337966,0.54117 -0.337966,0.54117 h -0.597814 -0.597814 v 0.40518 0.40518 l -0.46302,0.16704 -0.463021,0.16704 -0.702302,0.48612 -0.702303,0.48611 h -0.391318 -0.391318 l -0.13838,0.52916 -0.138381,0.52917 h -0.641519 -0.641519 l -0.347208,0.64876 -0.347207,0.648766 -0.734929,0.16142 -0.734929,0.16141 -0.682851,0.63285 -0.682851,0.63284 -0.925555,0.43921 -0.925555,0.4392 v 0.23444 0.23443 H 77.96437 77.589544 l -0.08819,0.24425 -0.08819,0.24425 -1.679063,0.94637 -1.679064,0.94638 H 73.68358 73.312122 v 0.52917 0.52917 h -0.498737 -0.498737 l -0.403933,0.61648 -0.403934,0.61648 -0.883267,0.25183 -0.883267,0.25184 -0.08605,0.74333 -0.08605,0.74333 0.615217,-0.18773 0.615217,-0.18774 0.417708,-0.36558 0.417709,-0.36558 h 0.386243 0.386243 l 1.03793,-0.52916 1.03793,-0.52917 h 0.563165 0.563165 l 0.351568,1.06526 0.351568,1.06526 -0.573802,0.77611 -0.573802,0.77611 v 0.37928 0.37928 l -0.396875,0.1523 -0.396875,0.15229 v 0.51857 0.51858 l -0.396875,0.39687 -0.396875,0.39688 -1.44e-4,0.21733 -1.44e-4,0.21734 -1.221877,1.25677 -1.221877,1.25677 h -0.202329 -0.202329 l -0.13838,0.52917 -0.13838,0.52916 h -0.694532 -0.694533 l -0.171769,0.46302 -0.171768,0.46302 -0.52187,0.46302 -0.521869,0.46303 h -0.356183 -0.356391 v 0.49677 0.49677 l -0.330729,0.26965 -0.330729,0.26966 -1.13588,0.3372 -1.135879,0.3372 -0.419778,-0.41977 -0.419778,-0.41978 0.163229,-0.65036 0.16323,-0.65036 0.797115,-0.33017 0.797116,-0.33018 v -0.31134 -0.31135 l 1.124479,-0.98476 1.124479,-0.98477 0.926042,-0.78423 0.926042,-0.78423 0.330729,-0.004 0.330729,-0.004 v -0.36911 -0.3691 l 0.633061,-0.6093 0.633061,-0.6093 -0.132202,-0.34451 -0.132202,-0.34452 h 0.292891 0.292891 v -0.39687 -0.39688 h -0.437491 -0.437491 l -1.348446,0.67088 -1.348447,0.67087 -0.79375,0.50041 -0.79375,0.50042 -0.595313,0.0193 -0.595312,0.0193 v 0.30156 0.30156 l -0.463021,0.35149 -0.463021,0.35148 -0.595312,0.008 -0.595313,0.008 v 0.40518 0.40518 l -0.463021,0.14642 -0.463021,0.14642 -0.992187,0.41462 -0.992188,0.41463 v 0.2244 0.2244 h -0.529166 -0.529167 v 0.20184 0.20185 l -0.483508,0.26117 -0.483508,0.26118 -0.773263,0.39149 -0.773263,0.39149 -0.132291,0.17409 -0.132292,0.17408 -0.926042,0.38908 -0.926041,0.38908 -1.275666,1.22816 -1.275666,1.22816 H 51.579835 51.31638 l -0.932545,0.98878 -0.932545,0.98879 -0.265062,0.49527 -0.265063,0.49527 1.678396,-0.19036 1.678395,-0.19037 0.880945,-0.36294 0.880945,-0.36295 0.574264,0.0391 0.574263,0.0391 2.175802,-0.57295 2.175802,-0.57295 h 0.747844 0.747843 l 0.258318,-0.25832 0.258318,-0.25832 3.035745,-0.27792 3.035745,-0.27793 3.836458,-0.54098 3.836458,-0.54098 0.993846,-0.14135 0.993846,-0.14135 0.146248,-0.23664 0.146248,-0.23663 2.034906,-0.0193 2.034906,-0.0193 1.455209,-0.25594 1.455208,-0.25595 1.984375,-0.263 1.984375,-0.263 1.984375,-0.11982 1.984375,-0.11982 2.645833,-0.25645 2.645836,-0.25645 1.45521,-0.27173 1.455198,-0.27173 0.47572,0.14979 0.47572,0.14978 0.31803,-0.25744 0.31803,-0.25743 2.77813,-0.1507 2.77812,-0.15069 3.175,-0.1789 3.175,-0.17889 0.26459,-0.20331 0.26458,-0.2033 2.77813,-0.19421 2.77812,-0.19422 1.19063,-0.0846 1.19062,-0.0846 2.51354,-0.12641 2.51354,-0.1264 1.91765,-0.14279 1.91764,-0.14278 0.5959,-0.3866 0.5959,-0.3866 1.63719,0.0867 1.63719,0.0867 4.05135,-0.34536 4.05135,-0.34537 1.19063,-0.17648 1.19062,-0.17649 0.66146,-0.22714 0.66146,-0.22715 1.78794,-0.14371 1.78793,-0.14371 0.65946,-0.16552 0.65946,-0.16551 v 0.29327 0.29326 h 0.66146 0.66146 v -0.22853 -0.22853 l 2.57968,-0.19511 2.57969,-0.19511 1.25292,-0.0394 1.25292,-0.0394 0.66531,-0.71606 0.66531,-0.71605 v -1.05674 -1.05673 l 0.41359,-0.23146 0.4136,-0.23146 -0.40163,-0.33332 -0.40163,-0.33332 -1.68246,0.82827 -1.68246,0.82827 -1.04148,0.0406 -1.04149,0.0406 -0.85989,-0.38178 -0.8599,-0.38179 v -0.46458 -0.46458 h -0.28241 -0.28242 l 0.16829,-0.53021 0.16828,-0.53021 0.0705,-0.66084 0.0705,-0.66083 0.17597,-0.17597 0.17596,-0.17596 v -0.68601 -0.68601 l 0.52917,-0.33047 0.52917,-0.33047 0.007,-0.59307 0.007,-0.59307 0.92245,-0.99219 0.92244,-0.99219 h 1.40583 1.40582 l -0.1165,0.79375 -0.1165,0.79375 h -0.18873 -0.18873 l 0.0941,0.72761 0.094,0.7276 -0.26115,0.39467 -0.26115,0.39466 -0.32852,-0.32852 -0.32852,-0.32852 h -0.47625 -0.47625 v 0.87548 0.87547 l -0.38846,0.51359 -0.38846,0.51359 -0.008,0.43471 -0.008,0.43472 0.43376,0.16644 0.43376,0.16645 0.75687,-0.33502 0.75686,-0.33502 v -0.19999 -0.2 h 0.4089 0.40891 l 0.66145,-0.66146 0.66146,-0.66146 h 0.39316 0.39315 l 0.14738,-0.38407 0.14739,-0.38408 0.88464,-0.29196 0.88465,-0.29196 -0.0991,-0.51459 -0.0991,-0.51459 h 0.36649 0.36649 l -0.0979,-0.50823 -0.0979,-0.50824 0.37765,-0.14492 0.37765,-0.14491 v -0.52126 -0.52126 l 1.18738,-0.17806 1.18737,-0.17806 0.40013,0.15354 0.40012,0.15355 v 0.7889 0.78891 l -0.36751,0.21158 -0.3675,0.21159 -0.58768,1.25677 -0.58767,1.25677 h -0.22714 -0.22714 l 0.14604,0.38058 0.14604,0.38058 -0.55122,0.47197 -0.55122,0.47197 v 0.47037 0.47036 l -0.19844,7.8e-4 -0.19843,7.8e-4 -0.022,0.97669 -0.022,0.97669 -0.30874,0.10292 -0.30873,0.10291 v 0.4915 0.4915 l -0.23299,0.144 -0.233,0.144 -0.12719,0.66536 -0.12719,0.66537 1.48466,0.0497 1.48467,0.0497 1.38906,-0.0724 1.38906,-0.0724 v 0.40401 0.404 l -0.27743,0.17146 -0.27743,0.17147 0.30983,0.37332 0.30982,0.37332 h -0.19708 -0.19709 l 0.29469,0.35507 0.29468,0.35507 -0.17409,0.1741 -0.17409,0.17409 h -1.82538 -1.82538 l -0.52605,0.28153 -0.52605,0.28153 -0.58104,0.0697 -0.58103,0.0697 -0.46303,0.17793 -0.46302,0.17793 -0.39687,0.12399 -0.39688,0.12399 v 0.48455 0.48456 l -0.33073,0.33072 -0.33072,0.33073 -0.0229,0.18521 -0.0229,0.18521 -0.1949,0.52917 -0.1949,0.52916 -0.42625,0.92605 -0.42625,0.92604 -0.053,0.13229 -0.0531,0.13229 -0.1937,0.59531 -0.1937,0.59532 h -0.20701 -0.20701 l -0.55589,1.06648 -0.55588,1.06648 v 0.36042 0.36042 l -0.39241,0.15058 -0.39242,0.15058 0.13988,0.3645 0.13987,0.36451 -0.40892,0.33937 -0.40891,0.33937 v 0.37015 0.37015 l -0.60454,0.27544 -0.60454,0.27545 -0.63053,1.18857 -0.63054,1.18857 -0.49822,0.26663 -0.49821,0.26664 -0.71411,0.74679 -0.7141,0.7468 -1.58751,0.0787 -1.5875,0.0787 -0.97435,-0.0483 -0.97436,-0.0483 -0.18503,-0.58297 -0.18503,-0.58297 -0.36197,-0.36197 -0.36196,-0.36197 v -0.51026 -0.51027 h -0.37905 -0.37904 l -0.18633,-0.59531 -0.18632,-0.59532 -0.6487,-0.77576 -0.6487,-0.77576 0.1607,-0.80347 0.16069,-0.80347 0.23212,-0.23211 0.23211,-0.23212 0.9413,-0.0267 0.94131,-0.0267 0.52357,0.47382 0.52357,0.47383 -0.14276,0.37201 -0.14275,0.37202 h 0.43449 0.43449 l -0.2832,0.52916 -0.2832,0.52917 h 0.27389 0.27389 v 0.50086 0.50086 l 0.42433,0.16283 0.42432,0.16283 -0.13665,0.3561 -0.13665,0.35611 0.64907,0.7 0.64908,0.69999 h 0.51846 0.51846 l 0.002,-0.19843 0.002,-0.19844 0.79667,-0.45335 0.79667,-0.45335 0.17848,-0.4651 0.17847,-0.4651 0.74298,-0.72628 0.74297,-0.72628 v -0.10795 -0.10795 l 0.95149,-1.02545 0.95148,-1.02544 0.20867,-0.52917 0.20867,-0.52916 -0.26071,-0.32375 -0.26071,-0.32374 0.94729,-1.1067 0.9473,-1.1067 -0.13968,-0.55652 -0.13968,-0.55652 0.5554,-0.59615 0.55539,-0.59615 -0.1614,-0.26116 -0.16141,-0.26115 h 0.25918 0.25917 l 0.17434,-0.79375 0.17434,-0.79375 0.17741,-0.004 0.17742,-0.004 0.3345,-0.21233 0.33449,-0.21233 -0.42002,-0.84195 -0.42002,-0.84195 h -0.79177 -0.79176 l -0.4803,0.25705 -0.4803,0.25704 -1.68512,0.12541 -1.68512,0.12541 -3.70417,0.28426 -3.70416,0.28426 -1.85209,0.27667 -1.85208,0.27667 -2.24896,0.14115 -2.24896,0.14115 -1.4552,0.0746 -1.45521,0.0746 -0.66146,0.15688 -0.66146,0.15689 -2.64583,0.15549 -2.64584,0.1555 -1.79901,0.10841 -1.79901,0.10841 -0.24745,0.15293 -0.24744,0.15293 -3.5098,0.26016 -3.50979,0.26015 -4.10104,0.26638 -4.10104,0.26638 -2.04409,0.10223 -2.0441,0.10224 -0.33715,0.21802 -0.33716,0.21802 -1.85208,0.0446 -1.85209,0.0446 -0.92604,0.12181 -0.926038,0.12182 -1.71979,0.29457 -1.719792,0.29457 -1.455209,0.005 -1.455208,0.005 -1.455208,0.39059 -1.455209,0.39059 -1.058333,0.002 -1.058333,0.002 -2.778125,0.38269 -2.778125,0.38269 -3.704167,0.4427 -3.704167,0.4427 -1.322916,0.11565 -1.322917,0.11565 -0.767086,0.2511 -0.767086,0.25111 h -1.561158 -1.561157 l -0.794237,0.41071 -0.794238,0.41072 -2.301477,0.13688 -2.301478,0.13688 -1.124742,0.40043 -1.124743,0.40043 -0.859632,0.0906 -0.859633,0.0906 -1.5875,0.29985 -1.5875,0.29986 -1.058333,0.14118 -1.058334,0.14117 -0.838206,0.37456 -0.838206,0.37456 -2.104502,0.3674 -2.104501,0.3674 -1.188715,0.52582 -1.188714,0.52583 -0.362039,0.8179 -0.362038,0.8179 -0.728698,0.30184 -0.728697,0.30183 0.12269,0.19852 0.12269,0.19852 -0.522928,0.47324 -0.522927,0.47324 -0.0055,0.28972 -0.0055,0.28973 -0.940623,0.79375 -0.940622,0.79375 -1.558548,1.43025 -1.558547,1.43026 -0.802635,0.38873 -0.802635,0.38872 v 0.23154 0.23154 h -0.396875 -0.396875 v 0.26792 0.26792 l -1.408097,0.62272 -1.408097,0.62273 -0.907007,0.9222 -0.907007,0.9222 -0.709103,0.17192 -0.709102,0.17193 -0.349231,0.34405 -0.349231,0.34405 -1.256771,0.6052 -1.256771,0.60519 v 0.229 0.22899 l -0.992187,0.15899 -0.992188,0.159 -0.926041,0.4119 -0.926042,0.4119 -1.322917,0.2199 -1.322916,0.21989 z m 0.506559,-2.90743 2.490933,-0.12057 1.01395,-0.51728 1.013949,-0.51727 1.226917,-0.16817 1.226916,-0.16817 0.126625,-0.48421 0.126624,-0.48421 1.45597,-0.45896 1.45597,-0.45895 0.13006,-0.33893 0.130059,-0.33893 h 0.396639 0.396638 l 1.002192,-0.79375 1.002191,-0.79375 h 0.247945 0.247945 l 0.355153,-0.66361 0.355153,-0.66361 1.012473,-0.27263 1.012473,-0.27263 v -0.38668 -0.38667 h 0.232679 0.23268 l 1.087098,-0.99219 1.087098,-0.99219 0.79221,-0.66146 0.792209,-0.66145 0.0047,-0.33073 0.0047,-0.33073 h 0.228504 0.228504 l 0.697538,-0.69754 0.697538,-0.69754 v -0.19377 -0.19377 l -1.389063,0.33635 -1.389062,0.33634 -1.852084,0.56746 -1.852083,0.56746 -0.529167,0.23319 -0.529166,0.2332 -1.455209,0.45638 -1.455208,0.45638 -0.529167,0.33029 -0.529166,0.33029 -0.917358,0.19191 -0.917357,0.1919 -0.405559,0.20007 -0.40556,0.20008 -0.661458,0.2741 -0.661459,0.27411 -1.504969,0.6828 -1.50497,0.68281 H 21.788892 21.56181 l -1.442948,0.91937 -1.442949,0.91937 -0.859895,0.16841 -0.859896,0.1684 v 0.32342 0.32342 l -1.520595,0.77161 -1.520596,0.77162 -0.350387,0.33073 -0.350387,0.33073 h -0.261299 -0.261299 l 0.136651,0.22111 0.136652,0.2211 -0.208209,0.77108 -0.208208,0.77108 1.476234,0.30218 1.476234,0.30217 z m 53.203859,-56.852506 1.455208,-0.13799 1.25702,-0.14806 1.25702,-0.14805 -0.148462,-0.24022 -0.148462,-0.24022 0.694604,-0.26409 0.694604,-0.26408 h 0.724576 0.724576 l 1.373438,-0.68442 1.373438,-0.68441 0.149335,-0.24163 0.149334,-0.24163 h 0.500405 0.500405 l 0.211584,-0.33828 0.211585,-0.33829 1.108895,-0.48862 1.108895,-0.48862 0.127022,-0.33101 0.127023,-0.33102 0.721635,0.13795 0.721636,0.13795 -0.188385,-0.30481 -0.188386,-0.30482 0.347499,-0.10832 0.347499,-0.10833 0.779951,-0.17256 0.779951,-0.17257 -0.276911,-0.18026 -0.27691,-0.18026 -0.004,-0.52917 -0.004,-0.52916 0.246223,-0.31303 0.246223,-0.31302 -0.546871,-0.54688 -0.546871,-0.54687 v -0.26458 -0.26458 h -0.350754 -0.350754 l -0.621408,-0.66146 -0.621408,-0.66146 h -0.62331 -0.623311 l -1.571555,0.66146 -1.571555,0.66146 h -0.413151 -0.413151 l -0.152296,0.39687 -0.152295,0.39688 h -0.359271 -0.359361 l -0.904031,0.79375 -0.904032,0.79375 h -0.182407 -0.182407 l -0.326635,0.33073 -0.326635,0.33073 -0.175329,0.46302 -0.175329,0.46302 h -0.38735 -0.387349 l -0.167951,0.52916 -0.167951,0.52917 h -0.233122 -0.233121 l -0.675091,0.62565 -0.67509,0.62566 v 0.18073 0.18073 l -0.595312,0.58268 -0.595313,0.58268 -0.08698,0.39687 -0.08698,0.39688 -0.376038,0.4177 -0.376037,0.41771 v 0.28785 0.28785 l -0.33073,0.15094 -0.330729,0.15094 z m 17.594791,51.209356 h -0.132291 v -0.13229 -0.13229 h 0.132291 0.132292 v 0.13229 0.13229 z m -24.98751,-5.82083 h -0.248968 l -0.152223,-0.2463 -0.152222,-0.2463 0.231995,-0.14339 0.231995,-0.14338 0.169196,0.1692 0.169196,0.1692 v 0.22048 0.22049 z m 13.624883,-14.35353 -1.205081,0.0182 v -0.24068 -0.24068 h -0.396875 -0.396875 l -0.03969,-0.66146 -0.03969,-0.66145 -0.02646,-0.33073 -0.02646,-0.33073 -0.330729,-0.21159 -0.330729,-0.21158 v -0.89126 -0.89125 l 0.168377,-0.43878 0.168376,-0.43879 0.636021,-0.24181 0.636021,-0.24182 -0.25022,-0.46754 -0.25022,-0.46754 0.480421,-0.59329 0.48042,-0.59329 h 0.388214 0.388213 l 0.329377,-0.39688 0.329377,-0.39687 h 0.356174 0.356175 l -0.152296,-0.39688 -0.152295,-0.39687 h 0.292891 0.292891 l 0.0046,-0.33073 0.0046,-0.33073 0.679979,-0.64531 0.67998,-0.64531 0.688083,-0.35698 0.688083,-0.35698 0.810179,0.16215 0.810179,0.16214 0.463021,0.13037 0.46302,0.13037 v 0.37904 0.37905 h 0.544782 0.544782 l -0.174402,0.28219 -0.174401,0.28218 0.454599,0.33242 0.454599,0.33241 0.353089,1.02706 0.353089,1.02707 -0.273886,0.33001 -0.273886,0.33002 0.164913,0.51959 0.164914,0.5196 -0.279662,0.17284 -0.279661,0.17284 0.16529,0.26745 0.165291,0.26744 -0.55785,0.39074 -0.55785,0.39073 v 0.38187 0.38187 h -0.219874 -0.219874 l -0.354002,0.66146 -0.354001,0.66146 h -0.29925 -0.299249 l -0.289649,0.28965 -0.289649,0.28965 -2.130061,0.85885 -2.130061,0.85885 z m 1.531667,-2.5798 h 0.901273 l 0.862086,-0.17242 0.862086,-0.17242 0.127887,-0.48904 0.127887,-0.48904 h 0.337288 0.337288 l 0.423461,-1.05833 0.423461,-1.05834 h 0.29757 0.29757 l -0.126445,-0.66146 -0.126446,-0.66145 h 0.288951 0.28895 l -0.822469,-0.82247 -0.82247,-0.82247 -1.083333,0.18302 -1.083332,0.18303 0.05881,0.19908 0.05881,0.19909 -1.13096,1.03567 -1.13096,1.03567 -0.107312,0.57814 -0.107313,0.57814 -0.247329,0.4802 -0.247329,0.48019 0.117501,0.39687 0.117502,0.39688 0.103025,0.33073 0.103026,0.33073 z m -9.21904,2.38125 h -0.132291 v -0.1323 -0.13229 h 0.132291 0.132292 v 0.13229 0.1323 z m 62.706244,-0.26459 h -0.13229 v -0.13229 -0.13229 h 0.13229 0.1323 v 0.13229 0.13229 z M 87.800464,118.199 h -1.030042 l 0.161178,-0.50783 0.161179,-0.50782 -0.540025,-0.1714 -0.540024,-0.1714 0.242757,-0.44525 0.242757,-0.44526 0.590779,-0.62716 0.590778,-0.62717 0.104969,-0.95254 0.10497,-0.95255 0.230943,-0.14273 0.230944,-0.14273 0.181952,-0.72495 0.181952,-0.72496 h 0.368192 0.368192 v -0.81852 -0.81852 l 0.526191,-0.1376 0.52619,-0.1376 -0.153314,-0.24807 -0.153314,-0.24807 0.685457,-0.63526 0.685456,-0.63526 v -0.40446 -0.40447 l 0.67724,-0.16998 0.677239,-0.16997 -0.139769,-0.36424 -0.139768,-0.36423 h 0.474742 0.474742 l 0.575287,0.61237 0.575287,0.61236 v 0.29868 0.29867 l -0.54109,0.379 -0.541091,0.37899 0.427966,0.16423 0.427966,0.16422 0.492606,-0.26363 0.492605,-0.26364 0.612707,-0.002 0.612702,-0.002 0.74412,-0.49063 0.74412,-0.49063 0.79035,0.16164 0.79035,0.16165 -0.0307,0.22253 -0.0307,0.22253 0.409848,0.30663 0.40985,0.30664 -0.33222,0.66146 -0.332218,0.66145 -0.78762,0.0689 -0.78762,0.0689 -1.05833,0.49391 -1.058332,0.49391 -2.336495,1.14038 -2.336495,1.14039 -0.770359,1.11967 -0.770359,1.11968 0.292812,0.0976 0.292812,0.0976 0.07876,0.71753 0.07877,0.71753 H 90.40084 90.073384 l -0.621408,0.66145 -0.621408,0.66146 z m -2.185008,-2.38125 h -0.132291 v -0.13229 -0.13229 h 0.132291 0.132292 v 0.13229 0.13229 z m 16.984474,-1.59591 -0.84489,-0.008 -0.39688,-0.32231 -0.39687,-0.32232 0.0265,-0.90057 0.0264,-0.90057 0.42949,-0.31405 0.42949,-0.31405 -0.10766,-0.55905 -0.10767,-0.55906 0.51162,-0.16238 0.51161,-0.16238 v -0.63753 -0.63753 l 0.66822,-0.43784 0.66823,-0.43783 -0.16421,-0.51736 -0.1642,-0.51736 0.54325,-0.50611 0.54325,-0.50612 h 0.7892 0.7892 l 0.15064,0.24376 0.15065,0.24375 0.0918,0.78813 0.0918,0.78813 -0.49138,0.42074 -0.49138,0.42073 v 0.39947 0.39946 h -0.2083 -0.20831 l -0.0615,0.8599 -0.0616,0.85989 -0.5239,0.71689 -0.5239,0.71689 v 0.34872 0.34872 l -0.41188,0.58803 -0.41188,0.58804 z m 14.04852,-0.28686 -0.34133,-0.0307 -0.46302,-0.121 -0.46302,-0.121 v -0.48772 -0.48772 l 0.29766,-0.0992 0.29765,-0.0992 v -0.71163 -0.71163 l 0.3638,-0.30193 0.36381,-0.30193 v -0.28902 -0.28903 l 0.59531,-0.6189 0.59531,-0.6189 0.59531,-0.61137 0.59532,-0.61137 v -0.30039 -0.30039 h -0.2552 -0.25519 l -1.26616,0.70486 -1.26616,0.70485 -1.28646,0.88265 -1.28646,0.88264 h -0.25051 -0.25051 l 0.16352,0.26458 0.16352,0.26459 h -0.26997 -0.26998 l -1.06855,1.07929 -1.06856,1.07929 v 0.24362 0.24363 h -0.26458 -0.26459 l -0.16885,-0.0226 -0.16886,-0.0226 -0.19499,0.3155 -0.19498,0.31549 -0.54975,-0.17448 -0.54974,-0.17448 -0.38905,-0.77987 -0.38905,-0.77988 h 0.23228 0.23227 l 0.67349,-0.67348 0.67348,-0.67349 v -0.23365 -0.23366 l 0.44356,-0.44356 0.44356,-0.44355 0.0717,-0.67271 0.0717,-0.6727 0.27847,-0.27847 0.27847,-0.27848 v -0.44794 -0.44794 l 0.41365,-0.15873 0.41364,-0.15873 -0.14615,-0.23648 -0.14614,-0.23647 0.39396,-0.32696 0.39396,-0.32696 v -0.30834 -0.30834 l 1.45836,-0.98218 1.45836,-0.98218 h 0.25464 0.25463 l 0.39592,0.76563 0.39592,0.76562 -1.05058,0.85632 -1.05058,0.85632 v 0.23014 0.23014 h 0.36447 0.36448 l 0.32938,-0.39687 0.32938,-0.39688 h 0.89364 0.89365 v -0.215 -0.21501 l 1.38906,-0.62411 1.38906,-0.62411 0.96723,-0.0148 0.96723,-0.0148 0.54856,0.65544 0.54856,0.65545 -0.11214,0.66145 -0.11214,0.66146 -0.2309,0.79375 -0.2309,0.79375 -1.08094,0.79375 -1.08095,0.79375 -0.35639,0.66146 -0.35639,0.66146 -0.33072,0.34963 -0.33073,0.34962 v 0.20262 0.20262 l -1.04774,1.1014 -1.04773,1.1014 z m 14.20419,-0.88672 -1.58094,0.10156 -0.97069,-0.24494 -0.97069,-0.24493 -0.93645,-0.10319 -0.93644,-0.1032 -0.68677,-0.44999 -0.68677,-0.44998 -0.15323,-0.39931 -0.15323,-0.39931 0.3616,-0.67565 0.3616,-0.67565 0.37006,-0.14201 0.37007,-0.142 0.56026,0.35222 0.56027,0.35223 1.05833,0.2205 1.05833,0.22051 1.32292,0.13818 1.32292,0.13818 0.34074,0.12013 0.34075,0.12014 0.14113,-0.3678 0.14114,-0.36779 -0.65148,-1.01681 -0.65148,-1.0168 -0.79502,-0.87668 -0.79502,-0.87667 -0.1345,-0.84312 -0.1345,-0.84312 0.37152,-0.29375 0.37151,-0.29375 v -0.29781 -0.2978 l 1.01666,-0.6728 1.01666,-0.67279 2.29803,0.26112 2.29802,0.26112 0.25719,0.15895 0.25719,0.15895 v 0.62862 0.62862 l -0.25803,0.67868 -0.25804,0.67868 h -0.49523 -0.49523 l -0.6358,-0.55204 -0.6358,-0.55204 -1.0484,0.16728 -1.0484,0.16728 -0.12057,0.12058 -0.12058,0.12057 0.35379,0.66106 0.35379,0.66106 h 0.48446 0.48446 v 0.50086 0.50086 l 0.38227,0.1467 0.38228,0.14669 0.17634,0.93995 0.17633,0.93994 -0.16826,0.89689 -0.16825,0.89689 -0.55701,0.14566 -0.55702,0.14566 0.15836,0.41266 0.15835,0.41266 h -0.36652 -0.36653 l -0.0948,0.28427 -0.0948,0.28427 z m 7.23311,-1.19926 h -0.21509 v -0.27113 -0.27113 l -0.66146,-0.25149 -0.66145,-0.25148 v -0.29555 -0.29554 l 0.52916,-0.67273 0.52917,-0.67273 v -0.41028 -0.41029 l 0.49053,-0.54622 0.49054,-0.54622 0.79272,-1.5875 0.79273,-1.5875 0.76189,-1.5875 0.7619,-1.5875 0.73297,-1.096696 0.73297,-1.09671 v -0.20537 -0.20538 l 0.37561,-0.41771 0.3756,-0.41771 0.98692,-1.71979 0.98692,-1.71979 0.46524,-0.92452 0.46523,-0.92451 -0.13389,-0.21664 -0.13388,-0.21664 0.3904,-0.44634 0.39041,-0.44635 0.82613,-1.8044 0.82614,-1.80439 v -0.44848 -0.44848 l 0.52607,-0.98152 0.52606,-0.98152 0.17025,-1.44858 0.17025,-1.44859 0.56046,-0.52134 0.56045,-0.52135 0.72761,0.14194 0.7276,0.14194 v 0.48908 0.48907 l -0.37275,1.13373 -0.37275,1.13373 -0.17176,0.83405 -0.17176,0.83405 -0.51382,1.00783 -0.51382,1.00783 v 0.44082 0.44083 l -0.39688,0.32938 -0.39687,0.32937 v 0.31421 0.31421 l -0.95968,1.9685 -0.95967,1.96849 -0.40425,0.46302 -0.40425,0.46302 h 0.1599 0.1599 l -1.21082,2.31511 -1.21081,2.3151 -0.30855,0.39688 -0.30855,0.39687 -0.38167,0.793746 -0.38166,0.79375 -0.50346,0.70987 -0.50346,0.70986 0.43342,0.43342 0.43342,0.43342 1.20398,-0.81255 1.20398,-0.81256 h 0.51591 0.5159 v -0.25921 -0.2592 l 0.99219,-0.50639 0.99218,-0.50639 0.50403,-0.557316 0.50403,-0.55732 h 0.31522 0.31522 l 0.87307,-0.43555 0.87307,-0.43554 0.49049,-0.4905 0.4905,-0.4905 h 0.62578 0.62577 l 0.69303,-0.54513 0.69302,-0.54513 0.86401,-0.13938 0.86402,-0.13937 0.64911,0.69268 0.64911,0.69268 -1.04599,0.9084 -1.04598,0.9084 -0.52917,-0.0992 -0.52917,-0.0992 -0.44932,-0.17896 -0.44932,-0.17897 -0.80745,0.47697 -0.80745,0.47697 v 0.16519 0.165186 l -1.07128,0.35355 -1.07127,0.35356 -0.1855,0.31823 -0.18549,0.31824 -0.92604,0.56019 -0.92605,0.5602 -0.43471,9.9e-4 -0.43471,9.9e-4 -0.1523,0.39687 -0.15229,0.39688 h -0.35747 -0.35746 l -0.55121,0.63394 -0.55121,0.63394 -0.47758,0.26727 -0.47758,0.26727 0.51805,0.96334 0.51806,0.96334 0.59531,0.39051 0.59531,0.3905 v 0.29429 0.29429 l 0.66146,0.61302 0.66146,0.61302 v 0.50079 0.5008 l -0.46302,0.40797 -0.46302,0.40797 -0.84301,-0.12993 -0.843,-0.12994 -0.71433,-1.03078 -0.71434,-1.03078 h -0.23427 -0.23427 l -0.29906,-0.65637 -0.29907,-0.65637 -0.48901,-0.15521 -0.48902,-0.15521 v -0.35036 -0.35036 l -0.67362,-0.16907 -0.67363,-0.16907 -0.2543,0.15716 -0.25429,0.15717 -0.37231,0.71996 -0.37231,0.71997 -0.18702,1.04919 -0.18702,1.04919 -0.67892,0.72761 -0.67891,0.7276 z m -73.107794,-3.43958 h -0.132291 v -0.13229 -0.13229 h 0.132291 0.132292 v 0.13229 0.13229 z m 35.399114,-6.42347 -1.907138,0.0588 -0.159,-0.25726 -0.159,-0.25727 h -0.71921 -0.71922 l -0.720377,-0.82095 -0.720377,-0.820956 v -0.23738 -0.23737 h 0.211455 0.211455 l -0.103677,-0.88807 -0.103677,-0.88806 0.851337,-0.17027 0.851341,-0.17027 h 0.62838 0.62839 v 0.92604 0.92604 l 0.7276,0.009 0.7276,0.009 1.545338,0.10326 1.54534,0.10326 0.0754,0.0863 0.0754,0.0863 0.18299,0.595306 0.18299,0.59531 h -0.35197 -0.35196 l -0.26118,0.59532 -0.26118,0.59531 z m 68.50013,-4.438866 -0.74467,0.21357 -0.71114,-0.37261 -0.71114,-0.3726 v -0.0832 -0.0832 l 0.40933,-0.82052 0.40933,-0.82052 0.58286,-0.17536 0.58285,-0.17535 0.79375,-0.74478 0.79375,-0.74477 1.12448,-0.44539 1.12448,-0.4454 v -0.22565 -0.22566 l 1.11796,-0.30103 1.11795,-0.30104 0.35226,-0.50291 0.35225,-0.50291 h 0.63084 0.63084 l 0.15094,-0.24423 0.15095,-0.24423 0.76861,-0.16881 0.76861,-0.16882 0.14609,-0.38071 0.14609,-0.3807 h 0.53747 0.53747 v -0.20017 -0.20016 l 1.05417,-0.329 1.05417,-0.329 h 0.53333 0.53333 v -0.37585 -0.37585 l 0.8599,-0.17945 0.8599,-0.17945 1.1578,-0.63532 1.1578,-0.63532 h 0.43443 0.43442 l 0.9344,-0.63494 0.93439,-0.63494 1.1114,-0.33298 1.1114,-0.33299 v -0.20168 -0.20168 l 0.79375,-0.17433 0.79375,-0.17434 v -0.24356 -0.24356 h 0.93675 0.93676 l 0.84918,-0.59532 0.84918,-0.59531 0.21159,-0.33073 0.21158,-0.33073 h 0.32717 0.32717 l 1.17283,-1.03031 1.17284,-1.03031 1.18367,-0.16224 1.18367,-0.16224 0.20413,0.20413 0.20413,0.20412 0.0756,0.89318 0.0756,0.89317 -2.00305,0.69057 -2.00304,0.69056 -0.74462,0.59531 -0.74461,0.59531 h -0.6559 -0.6559 l -1.09435,0.59532 -1.09436,0.59531 -0.0882,0.19844 -0.0882,0.19843 h -0.50712 -0.50712 v 0.24407 0.24406 l -0.91365,0.30154 -0.91366,0.30153 -1.26916,0.64392 -1.26915,0.64392 -0.33073,0.001 -0.33073,0.001 v 0.26458 0.26459 h -0.2929 -0.2929 l -1.65641,0.79052 -1.6564,0.79053 -0.32624,0.3931 -0.32624,0.39309 -0.9656,0.17595 -0.9656,0.17595 -0.7023,0.49251 -0.70231,0.49251 h -0.37037 -0.37038 l -1.25161,0.79375 -1.25162,0.79375 h -0.37207 -0.37207 l -0.16352,0.26458 -0.16352,0.26459 h -0.39243 -0.39243 l -0.31956,0.26869 -0.31956,0.26869 -0.74124,0.65735 -0.74123,0.65735 h -0.22297 -0.22297 l -0.84972,0.79375 -0.84971,0.79375 h -0.34999 -0.35 l -0.41517,0.41517 -0.41517,0.41517 z m -56.14195,-0.79537 -0.39688,-0.0154 -0.46302,-0.46949 -0.46302,-0.46949 v -0.34434 -0.34434 l 0.66146,-0.61302 0.66146,-0.61301 v -0.24778 -0.24777 l 0.88336,-0.16572 0.88336,-0.16572 0.77028,-0.94419 0.77029,-0.9442 0.52916,-0.25381 0.52917,-0.2538 0.59375,-0.34299 0.59374,-0.34298 -0.17482,-0.17482 -0.17482,-0.17482 h 0.41266 0.41267 l 0.14979,-0.39035 0.14979,-0.39034 1.18514,-0.29842 1.18514,-0.29842 0.45417,-0.50186 0.45418,-0.50186 h 0.62549 0.62549 l -0.16601,0.66146 -0.16602,0.66146 0.75629,0.008 0.75629,0.008 -0.46302,0.35148 -0.46302,0.35149 v 0.30156 0.30156 h -0.52917 -0.52917 l -0.52916,0.52917 -0.52917,0.52916 h -0.44097 -0.44097 l 0.17823,0.17823 0.17823,0.17824 -1.59424,0.76516 -1.59423,0.76515 0.1528,0.24724 0.1528,0.24723 h -0.67708 -0.67707 v 0.36547 0.36548 l -0.90839,0.69286 -0.90839,0.69286 h -0.24108 -0.24108 l -0.76876,0.66113 -0.76876,0.66114 z M 61.406081,74.542764 h -0.352778 l 0.176389,-0.17639 0.176389,-0.17639 0.176389,0.17639 0.176389,0.17639 z"
       id="path1" /></g></svg>
